<svg version="1.1" id="Layer_1" xmlns="http://www.w3.org/2000/svg" xmlns:xlink="http://www.w3.org/1999/xlink" x="0px" y="0px"
	 width="100%" viewBox="0 0 500 500" enable-background="new 0 0 500 500" xml:space="preserve">
<path fill="#000000" opacity="1.000000" stroke="none" 
	d="
M368.000000,501.000000 
	C245.333359,501.000000 123.166725,501.000000 1.000066,501.000000 
	C1.000044,334.333405 1.000044,167.666809 1.000022,1.000155 
	C167.666550,1.000103 334.333099,1.000103 500.999756,1.000052 
	C500.999817,167.666519 500.999817,334.333038 500.999908,500.999756 
	C456.833344,501.000000 412.666656,501.000000 368.000000,501.000000 
M371.993591,331.279816 
	C371.993591,331.279816 372.273773,331.135315 372.273773,331.135315 
	C372.273773,331.135315 372.210510,330.813202 372.002991,330.591583 
	C371.768219,330.612366 371.533478,330.633118 371.298706,330.653900 
	C371.480591,330.836243 371.662506,331.018585 371.993591,331.279816 
M166.977158,143.811905 
	C166.977158,143.811905 166.859482,144.027817 166.971024,144.301636 
	C167.194138,144.409851 167.417252,144.518066 167.640366,144.626282 
	C167.447235,144.369904 167.254120,144.113525 166.977158,143.811905 
M129.160187,351.204529 
	C130.082047,351.869110 131.003906,352.533691 131.925766,353.198273 
	C132.374115,352.765259 132.822449,352.332245 133.270782,351.899231 
	C131.945709,350.199280 130.620636,348.499329 129.295563,346.799377 
	C128.861115,347.073578 128.426666,347.347778 127.992218,347.622009 
	C128.264053,348.656372 128.535889,349.690735 129.160187,351.204529 
M123.129791,340.676178 
	C123.359505,340.182953 123.589218,339.689697 123.818932,339.196472 
	C123.405777,339.091919 122.992622,338.987366 122.579468,338.882812 
	C122.635612,339.484772 122.691757,340.086700 123.129791,340.676178 
M153.876984,118.142433 
	C154.316788,118.483162 154.756577,118.823891 155.196381,119.164619 
	C155.400803,118.792816 155.605225,118.421013 155.809647,118.049210 
	C155.191971,117.961693 154.574310,117.874176 153.876984,118.142433 
M118.328674,338.350800 
	C118.534348,338.003845 118.740013,337.656891 118.945679,337.309937 
	C118.546654,337.206268 118.147629,337.102600 117.748604,336.998962 
	C117.850655,337.392548 117.952705,337.786133 118.328674,338.350800 
M160.162308,132.929977 
	C159.819550,132.720474 159.476776,132.510971 159.134003,132.301468 
	C159.083313,132.444733 158.977005,132.707764 158.990036,132.713806 
	C159.348160,132.880112 159.718460,133.020248 160.162308,132.929977 
M172.230835,131.794479 
	C172.435181,132.011169 172.639542,132.227844 172.843887,132.444534 
	C172.990509,132.115692 173.137115,131.786865 173.283737,131.458038 
	C173.003204,131.507034 172.722687,131.556030 172.230835,131.794479 
M178.800186,122.675774 
	C178.676422,122.479973 178.552658,122.284172 178.428879,122.088371 
	C178.353119,122.198341 178.192383,122.378746 178.215576,122.406700 
	C178.352142,122.571457 178.531509,122.700714 178.800186,122.675774 
M235.498291,110.128571 
	C235.899597,109.939438 236.300919,109.750313 236.702240,109.561195 
	C236.206223,109.282562 235.710190,109.003937 235.214172,108.725311 
	C235.148941,109.150124 235.083710,109.574944 235.498291,110.128571 
M385.522919,344.989441 
	C385.522919,344.989441 385.489471,344.998077 385.522919,344.989441 
M125.502365,345.086731 
	C125.502365,345.086731 125.425766,345.023254 125.502365,345.086731 
M391.481293,349.006073 
	C391.481293,349.006073 391.526245,348.993774 391.481293,349.006073 
M135.608704,161.932449 
	C135.608704,161.932449 135.418442,161.980392 135.418442,161.980392 
	C135.418442,161.980392 135.604752,162.043533 135.608704,161.932449 
M121.630852,151.072372 
	C121.630852,151.072372 121.458031,150.841446 121.458031,150.841446 
	C121.458031,150.841446 121.483803,151.134048 121.630852,151.072372 
M115.506165,145.970184 
	C115.506165,145.970184 115.543304,146.003738 115.506165,145.970184 
M151.408737,121.946114 
	C151.408737,121.946114 151.564133,122.164215 151.564133,122.164215 
	C151.564133,122.164215 151.546021,121.891251 151.408737,121.946114 
M161.616425,136.919739 
	C161.616425,136.919739 161.392365,136.978180 161.392365,136.978180 
	C161.392365,136.978180 161.612320,137.051483 161.616425,136.919739 
M155.502274,128.059769 
	C155.502274,128.059769 155.444199,128.010223 155.502274,128.059769 
M166.964783,133.502243 
	C166.964783,133.502243 166.999878,133.463455 166.964783,133.502243 
M163.381790,140.090134 
	C163.381790,140.090134 163.627975,140.024933 163.627975,140.024933 
	C163.627975,140.024933 163.385757,139.944580 163.381790,140.090134 
M170.063095,129.390320 
	C170.063095,129.390320 169.839920,129.549072 169.839920,129.549072 
	C169.839920,129.549072 170.121841,129.530350 170.063095,129.390320 
M239.557999,108.505341 
	C239.557999,108.505341 239.444397,108.565529 239.557999,108.505341 
M159.474503,126.514389 
	C159.474503,126.514389 159.515961,126.503685 159.474503,126.514389 
M126.475685,341.514893 
	C126.475685,341.514893 126.514870,341.505493 126.475685,341.514893 
M160.519913,128.483139 
	C160.519913,128.483139 160.485413,128.489456 160.519913,128.483139 
M378.493713,335.590698 
	C378.493713,335.590698 378.429688,335.478668 378.493713,335.590698 
M371.381348,335.488770 
	C371.381348,335.488770 371.547455,335.587830 371.547455,335.587830 
	C371.547455,335.587830 371.527802,335.396301 371.381348,335.488770 
M162.518753,132.482742 
	C162.518753,132.482742 162.486069,132.487473 162.518753,132.482742 
M137.419876,163.495850 
	C137.419876,163.495850 137.524246,163.438568 137.419876,163.495850 
M124.488289,153.369049 
	C124.488289,153.369049 124.378326,153.544067 124.378326,153.544067 
	C124.378326,153.544067 124.589943,153.526840 124.488289,153.369049 
M166.502884,136.420670 
	C166.502884,136.420670 166.558762,136.523285 166.502884,136.420670 
M167.438461,138.500946 
	C167.438461,138.500946 167.518890,138.461380 167.438461,138.500946 
z"/>
<path fill="#060606" opacity="1.000000" stroke="none" 
	d="
M128.983948,350.964813 
	C128.535889,349.690735 128.264053,348.656372 127.992218,347.622009 
	C128.426666,347.347778 128.861115,347.073578 129.295563,346.799377 
	C130.620636,348.499329 131.945709,350.199280 133.270782,351.899231 
	C132.822449,352.332245 132.374115,352.765259 131.925766,353.198273 
	C131.003906,352.533691 130.082047,351.869110 128.983948,350.964813 
z"/>
<path fill="#060606" opacity="1.000000" stroke="none" 
	d="
M122.938843,340.682434 
	C122.691757,340.086700 122.635612,339.484772 122.579468,338.882812 
	C122.992622,338.987366 123.405777,339.091919 123.818932,339.196472 
	C123.589218,339.689697 123.359505,340.182953 122.938843,340.682434 
z"/>
<path fill="#090909" opacity="1.000000" stroke="none" 
	d="
M153.916809,117.964546 
	C154.574310,117.874176 155.191971,117.961693 155.809647,118.049210 
	C155.605225,118.421013 155.400803,118.792816 155.196381,119.164619 
	C154.756577,118.823891 154.316788,118.483162 153.916809,117.964546 
z"/>
<path fill="#060606" opacity="1.000000" stroke="none" 
	d="
M118.191711,338.265259 
	C117.952705,337.786133 117.850655,337.392548 117.748604,336.998962 
	C118.147629,337.102600 118.546654,337.206268 118.945679,337.309937 
	C118.740013,337.656891 118.534348,338.003845 118.191711,338.265259 
z"/>
<path fill="#090909" opacity="1.000000" stroke="none" 
	d="
M160.124512,133.047363 
	C159.718460,133.020248 159.348160,132.880112 158.990036,132.713806 
	C158.977005,132.707764 159.083313,132.444733 159.134003,132.301468 
	C159.476776,132.510971 159.819550,132.720474 160.124512,133.047363 
z"/>
<path fill="#090909" opacity="1.000000" stroke="none" 
	d="
M172.336487,131.699768 
	C172.722687,131.556030 173.003204,131.507034 173.283737,131.458038 
	C173.137115,131.786865 172.990509,132.115692 172.843887,132.444534 
	C172.639542,132.227844 172.435181,132.011169 172.336487,131.699768 
z"/>
<path fill="#090909" opacity="1.000000" stroke="none" 
	d="
M178.748322,122.758850 
	C178.531509,122.700714 178.352142,122.571457 178.215576,122.406700 
	C178.192383,122.378746 178.353119,122.198341 178.428879,122.088371 
	C178.552658,122.284172 178.676422,122.479973 178.748322,122.758850 
z"/>
<path fill="#1D1D1D" opacity="1.000000" stroke="none" 
	d="
M235.258392,110.064163 
	C235.083710,109.574944 235.148941,109.150124 235.214172,108.725311 
	C235.710190,109.003937 236.206223,109.282562 236.702240,109.561188 
	C236.300919,109.750313 235.899597,109.939438 235.258392,110.064163 
z"/>
<path fill="#090909" opacity="1.000000" stroke="none" 
	d="
M167.061005,143.857147 
	C167.254120,144.113525 167.447235,144.369904 167.640366,144.626282 
	C167.417252,144.518066 167.194138,144.409851 166.966385,144.122955 
	C166.961746,143.944260 167.061005,143.857147 167.061005,143.857147 
z"/>
<path fill="#111111" opacity="1.000000" stroke="none" 
	d="
M385.506195,344.993774 
	C385.489471,344.998077 385.522919,344.989441 385.506195,344.993774 
z"/>
<path fill="#060606" opacity="1.000000" stroke="none" 
	d="
M125.464066,345.054993 
	C125.425766,345.023254 125.502365,345.086731 125.464066,345.054993 
z"/>
<path fill="#111111" opacity="1.000000" stroke="none" 
	d="
M391.503784,348.999939 
	C391.526245,348.993774 391.481293,349.006073 391.503784,348.999939 
z"/>
<path fill="#111111" opacity="1.000000" stroke="none" 
	d="
M371.844421,331.200928 
	C371.662506,331.018585 371.480591,330.836243 371.298706,330.653900 
	C371.533478,330.633118 371.768219,330.612366 372.015839,330.799927 
	C372.028687,331.008240 371.844421,331.200928 371.844421,331.200928 
z"/>
<path fill="#101010" opacity="1.000000" stroke="none" 
	d="
M135.606720,161.987991 
	C135.604752,162.043533 135.418442,161.980392 135.418442,161.980392 
	C135.418442,161.980392 135.608704,161.932449 135.606720,161.987991 
z"/>
<path fill="#101010" opacity="1.000000" stroke="none" 
	d="
M121.557327,151.103210 
	C121.483803,151.134048 121.458031,150.841446 121.458031,150.841446 
	C121.458031,150.841446 121.630852,151.072372 121.557327,151.103210 
z"/>
<path fill="#101010" opacity="1.000000" stroke="none" 
	d="
M115.524734,145.986969 
	C115.543304,146.003738 115.506165,145.970184 115.524734,145.986969 
z"/>
<path fill="#090909" opacity="1.000000" stroke="none" 
	d="
M151.477386,121.918686 
	C151.546021,121.891251 151.564133,122.164215 151.564133,122.164215 
	C151.564133,122.164215 151.408737,121.946114 151.477386,121.918686 
z"/>
<path fill="#090909" opacity="1.000000" stroke="none" 
	d="
M161.614380,136.985611 
	C161.612320,137.051483 161.392365,136.978180 161.392365,136.978180 
	C161.392365,136.978180 161.616425,136.919739 161.614380,136.985611 
z"/>
<path fill="#090909" opacity="1.000000" stroke="none" 
	d="
M155.473236,128.035004 
	C155.444199,128.010223 155.502274,128.059769 155.473236,128.035004 
z"/>
<path fill="#090909" opacity="1.000000" stroke="none" 
	d="
M166.982330,133.482849 
	C166.999878,133.463455 166.964783,133.502243 166.982330,133.482849 
z"/>
<path fill="#090909" opacity="1.000000" stroke="none" 
	d="
M163.383774,140.017365 
	C163.385757,139.944580 163.627975,140.024933 163.627975,140.024933 
	C163.627975,140.024933 163.381790,140.090134 163.383774,140.017365 
z"/>
<path fill="#090909" opacity="1.000000" stroke="none" 
	d="
M170.092468,129.460327 
	C170.121841,129.530350 169.839920,129.549072 169.839920,129.549072 
	C169.839920,129.549072 170.063095,129.390320 170.092468,129.460327 
z"/>
<path fill="#111111" opacity="1.000000" stroke="none" 
	d="
M372.119598,330.910706 
	C372.210510,330.813202 372.273773,331.135315 372.273773,331.135315 
	C372.273773,331.135315 371.993591,331.279816 371.919006,331.240356 
	C371.844421,331.200928 372.028687,331.008240 372.119598,330.910706 
z"/>
<path fill="#1D1D1D" opacity="1.000000" stroke="none" 
	d="
M239.501190,108.535431 
	C239.444397,108.565529 239.557999,108.505341 239.501190,108.535431 
z"/>
<path fill="#090909" opacity="1.000000" stroke="none" 
	d="
M159.495239,126.509033 
	C159.515961,126.503685 159.474503,126.514389 159.495239,126.509033 
z"/>
<path fill="#060606" opacity="1.000000" stroke="none" 
	d="
M126.495277,341.510193 
	C126.514870,341.505493 126.475685,341.514893 126.495277,341.510193 
z"/>
<path fill="#090909" opacity="1.000000" stroke="none" 
	d="
M160.502655,128.486298 
	C160.485413,128.489456 160.519913,128.483139 160.502655,128.486298 
z"/>
<path fill="#111111" opacity="1.000000" stroke="none" 
	d="
M378.461700,335.534668 
	C378.429688,335.478668 378.493713,335.590698 378.461700,335.534668 
z"/>
<path fill="#111111" opacity="1.000000" stroke="none" 
	d="
M371.454590,335.442535 
	C371.527802,335.396301 371.547455,335.587830 371.547455,335.587830 
	C371.547455,335.587830 371.381348,335.488770 371.454590,335.442535 
z"/>
<path fill="#090909" opacity="1.000000" stroke="none" 
	d="
M162.502411,132.485107 
	C162.486069,132.487473 162.518753,132.482742 162.502411,132.485107 
z"/>
<path fill="#101010" opacity="1.000000" stroke="none" 
	d="
M137.472061,163.467209 
	C137.524246,163.438568 137.419876,163.495850 137.472061,163.467209 
z"/>
<path fill="#101010" opacity="1.000000" stroke="none" 
	d="
M124.539116,153.447937 
	C124.589943,153.526840 124.378326,153.544067 124.378326,153.544067 
	C124.378326,153.544067 124.488289,153.369049 124.539116,153.447937 
z"/>
<path fill="#090909" opacity="1.000000" stroke="none" 
	d="
M166.530823,136.471985 
	C166.558762,136.523285 166.502884,136.420670 166.530823,136.471985 
z"/>
<path fill="#090909" opacity="1.000000" stroke="none" 
	d="
M167.478668,138.481171 
	C167.518890,138.461380 167.438461,138.500946 167.478668,138.481171 
z"/>
<path fill="#090909" opacity="1.000000" stroke="none" 
	d="
M166.910614,143.986038 
	C166.859482,144.027817 166.977158,143.811905 167.019073,143.834534 
	C167.061005,143.857147 166.961746,143.944260 166.910614,143.986038 
z"/>
</svg>